<mxfile host="app.diagrams.net" modified="2023-07-10T14:43:22.563Z" agent="Mozilla/5.0 (X11; Linux x86_64) AppleWebKit/537.36 (KHTML, like Gecko) Chrome/102.0.0.0 Safari/537.36" etag="FvfGpEEvGVS65aGdbOP_" version="21.2.9" type="device">
  <diagram name="PÃ¡gina-1" id="lFabIclvilxt42sHl5SS">
    <mxGraphModel dx="1434" dy="710" grid="1" gridSize="10" guides="1" tooltips="1" connect="1" arrows="1" fold="1" page="1" pageScale="1" pageWidth="1169" pageHeight="1654" math="0" shadow="0">
      <root>
        <mxCell id="0" />
        <mxCell id="1" parent="0" />
        <mxCell id="8fYqs_rgSFELD76FwpnV-14" value="" style="group" vertex="1" connectable="0" parent="1">
          <mxGeometry x="100" y="230" width="140" height="289" as="geometry" />
        </mxCell>
        <mxCell id="8fYqs_rgSFELD76FwpnV-11" value="" style="group" vertex="1" connectable="0" parent="8fYqs_rgSFELD76FwpnV-14">
          <mxGeometry x="30" y="170" width="80" height="80" as="geometry" />
        </mxCell>
        <mxCell id="8fYqs_rgSFELD76FwpnV-10" value="" style="ellipse;whiteSpace=wrap;html=1;aspect=fixed;" vertex="1" parent="8fYqs_rgSFELD76FwpnV-11">
          <mxGeometry width="80" height="80" as="geometry" />
        </mxCell>
        <mxCell id="8fYqs_rgSFELD76FwpnV-3" value="" style="image;points=[];aspect=fixed;html=1;align=center;shadow=0;dashed=0;image=img/lib/allied_telesis/computer_and_terminals/Personal_Computer.svg;" vertex="1" parent="8fYqs_rgSFELD76FwpnV-11">
          <mxGeometry x="17.19999999999999" y="9" width="45.6" height="61.800000000000004" as="geometry" />
        </mxCell>
        <mxCell id="8fYqs_rgSFELD76FwpnV-12" value="" style="triangle;whiteSpace=wrap;html=1;rotation=90;" vertex="1" parent="8fYqs_rgSFELD76FwpnV-14">
          <mxGeometry x="60" y="130" width="20" height="40" as="geometry" />
        </mxCell>
        <mxCell id="8fYqs_rgSFELD76FwpnV-1" value="" style="rounded=1;whiteSpace=wrap;html=1;container=0;" vertex="1" parent="8fYqs_rgSFELD76FwpnV-14">
          <mxGeometry width="140" height="140" as="geometry" />
        </mxCell>
        <mxCell id="8fYqs_rgSFELD76FwpnV-2" value="SDK" style="rounded=1;whiteSpace=wrap;html=1;fillColor=#d5e8d4;strokeColor=#82b366;container=0;" vertex="1" parent="8fYqs_rgSFELD76FwpnV-14">
          <mxGeometry x="10" y="20" width="120" height="30" as="geometry" />
        </mxCell>
        <mxCell id="8fYqs_rgSFELD76FwpnV-4" value="Local Contract" style="text;html=1;strokeColor=none;fillColor=none;align=center;verticalAlign=middle;whiteSpace=wrap;rounded=0;fontStyle=1;container=0;" vertex="1" parent="8fYqs_rgSFELD76FwpnV-14">
          <mxGeometry y="259" width="140" height="30" as="geometry" />
        </mxCell>
        <mxCell id="8fYqs_rgSFELD76FwpnV-5" value="Contract Logic" style="rounded=1;whiteSpace=wrap;html=1;fillColor=#f8cecc;strokeColor=#b85450;container=0;" vertex="1" parent="8fYqs_rgSFELD76FwpnV-14">
          <mxGeometry x="10" y="60" width="120" height="30" as="geometry" />
        </mxCell>
        <mxCell id="8fYqs_rgSFELD76FwpnV-6" value="Testing" style="rounded=1;whiteSpace=wrap;html=1;fillColor=#ffe6cc;strokeColor=#d79b00;container=0;" vertex="1" parent="8fYqs_rgSFELD76FwpnV-14">
          <mxGeometry x="10" y="100" width="120" height="30" as="geometry" />
        </mxCell>
        <mxCell id="8fYqs_rgSFELD76FwpnV-68" value="" style="group" vertex="1" connectable="0" parent="1">
          <mxGeometry x="470" y="185" width="191" height="369" as="geometry" />
        </mxCell>
        <mxCell id="8fYqs_rgSFELD76FwpnV-18" value="" style="group" vertex="1" connectable="0" parent="8fYqs_rgSFELD76FwpnV-68">
          <mxGeometry x="50" y="250" width="80" height="80" as="geometry" />
        </mxCell>
        <mxCell id="8fYqs_rgSFELD76FwpnV-17" value="" style="ellipse;whiteSpace=wrap;html=1;aspect=fixed;" vertex="1" parent="8fYqs_rgSFELD76FwpnV-18">
          <mxGeometry width="80" height="80" as="geometry" />
        </mxCell>
        <mxCell id="8fYqs_rgSFELD76FwpnV-16" value="" style="shape=image;verticalLabelPosition=bottom;labelBackgroundColor=default;verticalAlign=top;aspect=fixed;imageAspect=0;image=data:image/x-icon,AAABAAEAQEAAAAEAIAAoQgAAFgAAACgAAABAAAAAgAAAAAEAIAAAAAAAAEAAACMuAAAjLgAAAAAAAAAAAAAAAAAAAAAAAAAAAAAAAAAAAAAAAAAAAAAAAAAAAAAAAAAAAAAAAAAAAAAAAAAAAAAAAAAAAAAAAAAAAAAAAAAAAAAAAAAAAAAAAAAAAAAAAAAAAAAAAAAAAAAAAAAAAAAAAAAAAAAAAAAAAAAAAAAAAAAAAAAAAAAAAAAAAAAAAAAAAAAAAAAAAAAAAAAAAAAAAAAAAAAAAAAAAAAAAAAAAAAAAAAAAAAAAAAAAAAAAAAAAAAAAAAAAAAAAAAAAAAAAAAAAAAAAAAAAAAAAAAAAAAAAAAAAAAAAAAAAAAAAAAAAAAAAAAAAAAAAAAAAAAAAAAAAAAAAAAAAAAAAAAAAAAAAAAAAAAAAAAAAAAAAAAAAAAAAAAAAAAAAAAAAAAAAAAAAAAAAAAAAAAAAAAAAAAAAAAAAAAAAAAAAAAAAAAAAAAAAAAAAAAAAAAAAAAAAAAAAAAAAAAAAAAAAAAAAAAAAAAAAAAAAAAAAAAAAAAAAAAAAAAAAAAAAAAAAAAAAAAAAAAAAAAAAAAAAAAAAKf/AACn/wAAp/8AAKf/AACn/wAAp/8AAKf/AACn/wAAp/8AAAAAAAAAAAAAAAAAAAAAAAAAAAAAAAAAAAAAAAAAAAAAAAAAAAAAAAAAAAAAAAAAAAAAAAAAAAAAAAAAAAAAAAAAAAAAAAAAAAAAAAAAAAAAAAAAAAAAAAAAAAAAAAAAAAAAAAAAAAAAAAAAAAAAAAAAAAAAAAAAAAAAAAAAAAAAAAAAAAAAAAAAAAAAAAAAAAAAAAAAAAAAAAAAAAAAAAAAAAAAAAAAAAAAAAAAAAAAAAAAAAAAAAAAAAAAAAAAAAAAAAAAAAAAAAAAAKf/AACn/wAAp/8AAKf/AACn/wAAp/8AAKf/BACn/wgAp/8KAKf/CQCn/wUAp/8AAKf/AACn/wAAp/8AAKf/AACn/wAAAAAAAAAAAAAAAAAAAAAAAAAAAAAAAAAAAAAAAAAAAAAAAAAAAAAAAAAAAAAAAAAAAAAAAAAAAAAAAAAAAAAAAAAAAAAAAAAAAAAAAAAAAAAAAAAAAAAAAAAAAAAAAAAAAAAAAAAAAAAAAAAAAAAAAAAAAAAAAAAAAAAAAAAAAAAAAAAAAAAAAAAAAAAAAAAAAAAAAAAAAAAAAAAAAAAAAAAAAAAAAAAAAAAAAAAAAAAAAAAAp/8AAKf/AACn/wAAp/8FAKf/IQCn/0sAp/91AKf/mACn/7AAp/+9AKf/wgCn/74Ap/+yAKf/mwCn/3oAp/9PAKf/JQCn/wcAp/8AAKf/AACn/wAAAAAAAAAAAAAAAAAAAAAAAAAAAAAAAAAAAAAAAAAAAAAAAAAAAAAAAAAAAAAAAAAAAAAAAAAAAAAAAAAAAAAAAAAAAAAAAAAAAAAAAAAAAAAAAAAAAAAAAAAAAAAAAAAAAAAAAAAAAAAAAAAAAAAAAAAAAAAAAAAAAAAAAAAAAAAAAAAAAAAAAAAAAAAAAAAAAAAAAAAAAAAAAAAAAAAAAAAAAACn/wAAp/8AAKf/AACn/x0Ap/9hAKf/rACn/98Ap//4AKf//wCn//8Ap///AKf//wCn//8Ap///AKf//wCn//8Ap///AKf/+gCn/+MAp/+zAKf/aQCn/yMAp/8AAKf/AACn/wAAAAAAAAAAAAAAAAAAAAAAAAAAAAAAAAAAAAAAAAAAAAAAAAAAAAAAAAAAAAAAAAAAAAAAAAAAAAAAAAAAAAAAAAAAAAAAAAAAAAAAAAAAAAAAAAAAAAAAAAAAAAAAAAAAAAAAAAAAAAAAAAAAAAAAAAAAAAAAAAAAAAAAAAAAAAAAAAAAAAAAAAAAAAAAAAAAAAAAAKf/AACn/wAAp/8AAKf/IQCn/34Ap//WAKf//ACn//8Ap///AKf//wCn//8Ap///AKf//wCn//8Ap///AKf//wCn//8Ap///AKf//wCn//8Ap///AKf//wCn//4Ap//cAKf/iQCn/ykAp/8AAKf/AACn/wAAAAAAAAAAAAAAAAAAAAAAAAAAAAAAAAAAAAAAAAAAAAAAAAAAAAAAAAAAAAAAAAAAAAAAAAAAAAAAAAAAAAAAAAAAAAAAAAAAAAAAAAAAAAAAAAAAAAAAAAAAAAAAAAAAAAAAAAAAAAAAAAAAAAAAAAAAAAAAAAAAAAAAAAAAAAAAAAAAAAAAAKf/AACn/wAAp/8MAKf/ZgCn/9UAp///AKf//wCn//8Ap///AKf//wCn//8Ap///AKf//wCn//8Ap///AKf//wCn//8Ap///AKf//wCn//8Ap///AKf//wCn//8Ap///AKf//wCn//8Ap//dAKf/dACn/xEAp/8AAKf/AAAAAAAAAAAAAAAAAAAAAAAAAAAAAAAAAAAAAAAAAAAAAAAAAAAAAAAAAAAAAAAAAAAAAAAAAAAAAAAAAAAAAAAAAAAAAAAAAAAAAAAAAAAAAAAAAAAAAAAAAAAAAAAAAAAAAAAAAAAAAAAAAAAAAAAAAAAAAAAAAAAAAAAAAAAAAKf/AACn/wAAp/8lAKf/pwCn//kAp///AKf//wCn//8Ap///AKf//wCn//8Ap///AKf//wCn//8Ap///AKf//wCn//8Ap///AKf//wCn//8Ap///AKf//wCn//8Ap///AKf//wCn//8Ap///AKf//wCn//wAp/+1AKf/MACn/wAAp/8AAAAAAAAAAAAAAAAAAAAAAAAAAAAAAAAAAAAAAAAAAAAAAAAAAAAAAAAAAAAAAAAAAAAAAAAAAAAAAAAAAAAAAAAAAAAAAAAAAAAAAAAAAAAAAAAAAAAAAAAAAAAAAAAAAAAAAAAAAAAAAAAAAAAAAAAAAAAAAAAAAAAAAACn/wAAp/8zAKf/zACn//8Ap///AKf//wCn//8Ap///AKf//wCn//8Ap///AKf//wCn//8Ap///AKf//wCn//8Ap///AKf//wCn//8Ap///AKf//wCn//8Ap///AKf//wCn//8Ap///AKf//wCn//8Ap///AKf//wCn/9gAp/9LAKf/AACn/wAAAAAAAAAAAAAAAAAAAAAAAAAAAAAAAAAAAAAAAAAAAAAAAAAAAAAAAAAAAAAAAAAAAAAAAAAAAAAAAAAAAAAAAAAAAAAAAAAAAAAAAAAAAAAAAAAAAAAAAAAAAAAAAAAAAAAAAAAAAAAAAAAAAAAAAAAAAAAAAAAAp/8PAKf/ugCn//8Ap///AKf//wCn//8Ap///AKf//wCn//8Ap///AKf//wCn//8Ap///AKf//wCn//8Ap///AKf//wCn//8Ap///AKf//wCn//8Ap///AKf//wCn//8Ap///AKf//wCn//8Ap///AKf//wCn//8Ap///AKf/5gCn/1UAp/8BAKf/AAAAAAAAAAAAAAAAAAAAAAAAAAAAAAAAAAAAAAAAAAAAAAAAAAAAAAAAAAAAAAAAAAAAAAAAAAAAAAAAAAAAAAAAAAAAAAAAAAAAAAAAAAAAAAAAAAAAAAAAAAAAAAAAAAAAAAAAAAAAAAAAAAAAAAAAAAAAAKf/PQCn//QAp///AKf//wCn//8Ap///AKf//wCn//8Ap///AKf//wCn//8Ap///AKf//wCn//8Ap///AKf//wCn//8Ap///AKf//wCn//8Ap///AKf//wCn//8Ap///AKf//wCn//8Ap///AKf//wCn//8Ap///AKf//wCn//8Ap//nAKf/SwCn/wAAp/8AAAAAAAAAAAAAAAAAAAAAAAAAAAAAAAAAAAAAAAAAAAAAAAAAAAAAAAAAAAAAAAAAAAAAAAAAAAAAAAAAAAAAAAAAAAAAAAAAAAAAAAAAAAAAAAAAAAAAAAAAAAAAAAAAAAAAAAAAAAAAAAAAAAAAAACn/08Ap//7AKf//wCn//8Ap///AKf//wCn//8Ap///AKf//wCn//8Ap///AKf//ACn/98Ap/+yAKf/igCn/3EAp/9oAKf/bwCn/4cAp/+tAKf/2gCn//oAp///AKf//wCn//8Ap///AKf//wCn//8Ap///AKf//wCn//8Ap///AKf//wCn/9kAp/8wAKf/AAAAAAAAAAAAAAAAAAAAAAAAAAAAAAAAAAAAAAAAAAAAAAAAAAAAAAAAAAAAAAAAAAAAAAAAAAAAAAAAAAAAAAAAAAAAAAAAAAAAAAAAAAAAAAAAAAAAAAAAAAAAAAAAAAAAAAAAAAAAAAAAAAAAAAAAp/8wAKf/7ACn//8Ap///AKf//wCn//8Ap///AKf//wCn//8Ap//5AKf/vQCn/2IAp/8iAKf/BgCn/wAAp/8AAKf/AACn/wAAp/8AAKf/BACn/x0Ap/9YAKf/sgCn//UAp///AKf//wCn//8Ap///AKf//wCn//8Ap///AKf//wCn//8Ap///AKf/tQCn/xEAp/8AAAAAAAAAAAAAAAAAAAAAAAAAAAAAAAAAAAAAAAAAAAAAAAAAAAAAAAAAAAAAAAAAAAAAAAAAAAAAAAAAAAAAAAAAAAAAAAAAAAAAAAAAAAAAAAAAAAAAAAAAAAAAAAAAAAAAAAAAAAAAAAAAAKf/BwCn/5sAp///AKf//wCn//8Ap///AKf//wCn//8Ap//aAKf/ZACn/w8Ap/8AAKf/AACn/wAAp/8AAKf/AAAAAAAAp/8AAKf/AACn/wAAp/8AAKf/AACn/woAp/9VAKf/zgCn//8Ap///AKf//wCn//8Ap///AKf//wCn//8Ap///AKf//wCn//sAp/9xAKf/AQAAAAAAAAAAAAAAAAAAAAAAAAAAAAAAAAAAAAAAAAAAAAAAAAAAAAAAAAAAAAAAAAAAAAAAAAAAAAAAAAAAAAAAAAAAAAAAAAAAAAAAAAAAAAAAAAAAAAAAAAAAAAAAAAAAAAAAAAAAAAAAAACn/wAAp/8bAKf/pACn//MAp///AKf//wCn//YAp/+yAKf/LwCn/wAAp/8AAKf/AAAAAAAAAAAAAAAAAAAAAAAAAAAAAAAAAAAAAAAAAAAAAAAAAACn/wAAp/8AAKf/AACn/yMAp/+sAKf//gCn//8Ap///AKf//wCn//8Ap///AKf//wCn//8Ap///AKf/2wCn/yQAp/8AAAAAAAAAAAAAAAAAAAAAAAAAAAAAAAAAAAAAAAAAAAAAAAAAAAAAAAAAAAAAAAAAAAAAAAAAAAAAAAAAAAAAAAAAAAAAAAAAAAAAAAAAAAAAAAAAAAAAAAAAAAAAAAAAAAAAAAAAAAAAp/8AAKf/AACn/woAp/9DAKf/cgCn/3QAp/9IAKf/DgCn/wAAp/8AAAAAAAAAAAAAAAAAAAAAAAAAAAAAAAAAAAAAAAAAAAAAAAAAAAAAAAAAAAAAAAAAAAAAAACn/wAAp/8AAKf/FQCn/6cAp//+AKf//wCn//8Ap///AKf//wCn//8Ap///AKf//wCn//4Ap/9/AKf/AQAAAAAAAAAAAAAAAAAAAAAAAAAAAAAAAAAAAAAAAAAAAAAAAAAAAAAAAAAAAAAAAAAAAAAAAAAAAAAAAAAAAAAAAAAAAAAAAAAAAAAAAAAAAAAAAAAAAAAAAAAAAAAAAAAAAAAAAAAAAAAAAACn/wAAp/8AAKf/AACn/wAAp/8AAKf/AACn/wAAp/8AAAAAAAAAAAAAAAAAAAAAAAAAAAAAAAAAAAAAAAAAAAAAAAAAAAAAAAAAAAAAAAAAAAAAAAAAAAAAAAAAAKf/AACn/wAAp/8cAKf/wwCn//8Ap///AKf//wCn//8Ap///AKf//wCn//8Ap///AKf/0wCn/xkAAAAAAAAAAAAAAAAAAAAAAAAAAAAAAAAAAAAAAAAAAAAAAAAAAAAAAAAAAAAAAAAAAAAAAAAAAAAAAAAAAAAAAAAAAAAAAAAAAAAAAAAAAAAAAAAAAAAAAAAAAAAAAAAAAAAAAAAAAAAAAAAAAAAAAAAAAAAAAAAAAAAAAAAAAAAAAAAAAAAAAAAAAAAAAAAAAAAAAAAAAAAAAAAAAAAAAAAAAAAAAAAAAAAAAAAAAAAAAAAAAAAAAAAAAAAAAAAAAAAAAAAAAAAAAAAAp/8AAKf/AACn/0IAp//tAKf//wCn//8Ap///AKf//wCn//8Ap///AKf//wCn//oAp/9UAKf/AAAAAAAAAAAAAAAAAAAAAAAAAAAAAAAAAAAAAAAAAAAAAAAAAAAAAAAAAAAAAAAAAAAAAAAAAAAAAAAAAAAAAAAAAAAAAAAAAICAgACAgIAAgICAAICAgACAgIAAgICAAICAgACAgIAAgICAAICAgACAgIAAgICAAICAgACAgIAAgICAAICAgACAgIAAgICAAICAgACAgIAAgICAAICAgACAgIAAgICAAICAgACAgIAAgICAAAAAAAAAAAAAAAAAAAAAAAAAAAAAAAAAAACn/wAAp/8EAKf/mgCn//8Ap///AKf//wCn//8Ap///AKf//wCn//8Ap///AKf/lgCn/wEAAAAAAAAAAAAAAAAAAAAAAAAAAAAAAAAAAAAAAAAAAAAAAAAAAAAAAAAAAAAAAAAAAAAAAAAAAAAAAACAgIAAgICAAICAgACAgIAAgICAAICAgAyAgIAdgICAL4CAgDyAgIBDgICAQ4CAgEOAgIBDgICAQ4CAgEOAgIBDgICAQ4CAgEOAgIBDgICAQ4CAgEOAgIBDgICAQ4CAgEOAgIBDgICAQ4CAgEOAgIA/gICAIoCAgAKAgIAAgICAAAAAAAAAAAAAAAAAAAAAAAAAAAAAAKf/AACn/z8Ap//yAKf//wCn//8Ap///AKf//wCn//8Ap///AKf//wCn/8gAp/8OAAAAAAAAAAAAAAAAAAAAAAAAAAAAAAAAAAAAAAAAAAAAAAAAAAAAAAAAAAAAAAAAAAAAAICAgACAgIAAgICAAICAgASAgIAngICAX4CAgJeAgIDDgICA3oCAgO2AgID0gICA94CAgPeAgID3gICA94CAgPeAgID3gICA94CAgPeAgID3gICA94CAgPeAgID3gICA94CAgPeAgID3gICA94CAgPeAgID3gICA9YCAgOCAgICNgICAGICAgAAAAAAAAAAAAAAAAAAAAAAAAAAAAAAAAAAAp/8PAKf/yACn//8Ap///AKf//wCn//8Ap///AKf//wCn//8Ap//mAKf/JQAAAAAAAAAAAAAAAAAAAAAAAAAAAAAAAAAAAAAAAAAAAAAAAAAAAAAAAAAAgICAAICAgACAgIAAgICADYCAgE6AgIClgICA44CAgP2AgID/gICA/4CAgP+AgID/gICA/4CAgP+AgID/gICA/4CAgP+AgID/gICA/4CAgP+AgID/gICA/4CAgP+AgID/gICA/4CAgP+AgID/gICA/4CAgP+AgID/gICA/4CAgP+AgID/gICA/4CAgKWAgIANAAAAAAAAAAAAAAAAAAAAAAAAAAAAAAAAAKf/AQCn/5kAp///AKf//wCn//8Ap///AKf//wCn//8Ap///AKf/9ACn/zwAAAAAAAAAAAAAAAAAAAAAAAAAAAAAAAAAAAAAAAAAAAAAAAAAAAAAgICAAICAgACAgIAGgICATYCAgLmAgID2gICA/4CAgP+AgID/gICA/4CAgP+AgID/gICA/4CAgP+AgID/gICA/4CAgP+AgID/gICA/4CAgP+AgID/gICA/4CAgP+AgID/gICA/4CAgP+AgID/gICA/4CAgP+AgID/gICA/4CAgP+AgID/gICA/4CAgP+AgID4gICATgAAAAAAAAAAAAAAAAAAAAAAAAAAAAAAAACn/wAAp/94AKf//wCn//8Ap///AKf//wCn//8Ap///AKf//wCn//sAp/9NAAAAAAAAAAAAAAAAAAAAAAAAAAAAAAAAAAAAAAAAAAAAAAAAgICAAICAgACAgIAjgICAm4CAgPKAgID/gICA/4CAgP+AgID/gICA/4CAgP+AgID/gICA/4CAgP+AgID/gICA/4CAgP+AgID/gICA/4CAgP+AgID/gICA/4CAgP+AgID/gICA/4CAgP+AgID/gICA/4CAgP+AgID/gICA/4CAgP+AgID/gICA/4CAgP+AgID/gICA/4CAgIEAAAAAAAAAAAAAAAAAAAAAAAAAAAAAAAAAAAAAAKf/agCn//8Ap///AKf//wCn//8Ap///AKf//wCn//8Ap//9AKf/VAAAAAAAAAAAAAAAAAAAAAAAAAAAAAAAAAAAAAAAAAAAgICAAICAgACAgIBGgICAzoCAgP+AgID/gICA/4CAgP+AgID/gICA/4CAgP+AgID/gICA/4CAgP+AgID/gICA/4CAgP+AgID/gICA/4CAgP+AgID/gICA/4CAgP+AgID/gICA/4CAgP+AgID/gICA/4CAgP+AgID/gICA/4CAgP+AgID/gICA/4CAgP+AgID/gICA/4CAgP+AgIB6AAAAAAAAAAAAAAAAAAAAAAAAAAAAAAAAAKf/AACn/3AAp///AKf//wCn//8Ap///AKf//wCn//8Ap///AKf//ACn/1EAAAAAAAAAAAAAAAAAAAAAAAAAAAAAAAAAAAAAgICAAICAgAKAgIBdgICA5oCAgP+AgID/gICA/4CAgP+AgID/gICA/4CAgP+AgID/gICA/4CAgP+AgID/gICA/4CAgP+AgID/gICA/4CAgP+AgID/gICA/4CAgP+AgID/gICA/4CAgP+AgID/gICA/4CAgP+AgID/gICA/4CAgP+AgID/gICA/4CAgP+AgID/gICA/4CAgP+AgIDvgICAPQAAAAAAAAAAAAAAAAAAAAAAAAAAAAAAAACn/wAAp/+KAKf//wCn//8Ap///AKf//wCn//8Ap///AKf//wCn//cAp/9EAAAAAAAAAAAAAAAAAAAAAAAAAAAAAAAAgICAAICAgAGAgIBggICA7YCAgP+AgID/gICA/4CAgP+AgID/gICA/4CAgP+AgID/gICA/4CAgP+AgID/gICA/4CAgP+AgID/gICA/4CAgP+AgID/gICA/4CAgP+AgID/gICA/4CAgP+AgID/gICA/4CAgP+AgID/gICA/4CAgP+AgID/gICA/4CAgP+AgID/gICA/4CAgP+AgID3gICAgYCAgAUAAAAAAAAAAAAAAAAAAAAAAAAAAAAAAAAAp/8HAKf/tQCn//8Ap///AKf//wCn//8Ap///AKf//wCn//8Ap//tAKf/LwAAAAAAAAAAAAAAAAAAAAAAAAAAgICAAICAgACAgIBNgICA6oCAgP+AgID/gICA/4CAgP+AgID/gICA/4CAgP+AgID/gICA/4CAgP+AgID/gICA/4CAgP+AgID0gICA54CAgOCAgIDfgICA34CAgN+AgIDfgICA34CAgN+AgIDfgICA34CAgN+AgIDfgICA34CAgN+AgIDfgICA34CAgN+AgIDfgICA34CAgNuAgIC6gICAX4CAgAmAgIAAAAAAAAAAAAAAAAAAAAAAAAAAAAAAp/8AAKf/KACn/+UAp///AKf//wCn//8Ap///AKf//wCn//8Ap///AKf/1gCn/xcAAAAAAAAAAAAAAAAAAAAAAAAAAICAgACAgIAsgICA2ICAgP+AgID/gICA/4CAgP+AgID/gICA/4CAgP+AgID/gICA/4CAgP+AgID/gICA4oCAgKWAgIBngICAPYCAgCeAgIAfgICAHoCAgB6AgIAegICAHoCAgB6AgIAegICAHoCAgB6AgIAegICAHoCAgB6AgIAegICAHoCAgB6AgIAegICAHoCAgB6AgIAagICACoCAgACAgIAAAAAAAAAAAAAAAAAAAAAAAAAAAAAAAAAAAKf/AACn/3YAp//9AKf//wCn//8Ap///AKf//wCn//8Ap///AKf//wCn/60Ap/8FAAAAAAAAAAAAAAAAAAAAAICAgACAgIAMgICAq4CAgP+AgID/gICA/4CAgP+AgID/gICA/4CAgP+AgID/gICA/4CAgP+AgIDjgICAgoCAgCmAgIADgICAAICAgACAgIAAgICAAICAgACAgIAAgICAAICAgACAgIAAgICAAICAgACAgIAAgICAAICAgACAgIAAgICAAICAgACAgIAAgICAAICAgACAgIAAgICAAICAgACAgIAAAAAAAAAAAAAAAAAAAAAAAAAAAAAAAAAAAKf/AACn/yEAp//WAKf//wCn//8Ap///AKf//wCn//8Ap///AKf//wCn//4Ap/9vAKf/AAAAAAAAAAAAAAAAAAAAAACAgIAAgICAXoCAgPiAgID/gICA/4CAgP+AgID/gICA/4CAgP+AgID/gICA/4CAgP6AgIC1gICANICAgACAgIAAgICAAICAgAAAAAAAAAAAAAAAAAAAAAAAAAAAAAAAAAAAAAAAAAAAAAAAAAAAAAAAAAAAAAAAAAAAAAAAAAAAAAAAAAAAAAAAAAAAAAAAAAAAAAAAAAAAAAAAAAAAAAAAAAAAAAAAAAAAAAAAAAAAAAAAAAAAAAAAAKf/AACn/wcAp/+WAKf//gCn//8Ap///AKf//wCn//8Ap///AKf//wCn//8Ap//oAKf/LQCn/wAAAAAAAAAAAAAAAACAgIAAgICAFYCAgMmAgID/gICA/4CAgP+AgID/gICA/4CAgP+AgID/gICA/4CAgPyAgICagICAFYCAgACAgIAAAAAAAAAAAAAAAAAAAAAAAAAAAAAAAAAAAAAAAAAAAAAAAAAAAAAAAAAAAAAAAAAAAAAAAAAAAAAAAAAAAAAAAAAAAAAAAAAAAAAAAAAAAAAAAAAAAAAAAAAAAAAAAAAAAAAAAAAAAAAAAAAAAAAAAAAAAAAAAAAAAKf/AACn/wMAp/9vAKf/9gCn//8Ap///AKf//wCn//8Ap///AKf//wCn//8Ap///AKf/pQCn/wYAAAAAAAAAAAAAAAAAAAAAgICAAICAgF+AgID7gICA/4CAgP+AgID/gICA/4CAgP+AgID/gICA/4CAgP6AgICigICAEICAgACAgIAAAAAAAAAAAAAAAAAAAAAAAAAAAAAAAAAAAAAAAAAAAAAAAAAAAAAAAAAAAAAAAAAAAAAAAAAAAAAAAAAAAAAAAAAAAAAAAAAAAAAAAAAAAAAAAAAAAAAAAAAAAAAAAAAAAAAAAAAAAAAAAAAAAAAAAAAAAAAAp/8AAKf/AACn/wcAp/9vAKf/8ACn//8Ap///AKf//wCn//8Ap///AKf//wCn//8Ap///AKf/8QCn/0QAp/8AAAAAAAAAAAAAAAAAAAAAAICAgAiAgIC0gICA/4CAgP+AgID/gICA/4CAgP+AgID/gICA/4CAgP+AgIDJgICAHYCAgACAgIAAAAAAAAAAAAAAAAAAAAAAAAAAAAAAAAAAAAAAAAAAAAAAAAAAAAAAAAAAAAAAAAAAAAAAAAAAAAAAAAAAAAAAAAAAAAAAAAAAAAAAAAAAAAAAAAAAAAAAAAAAAAAAAAAAAAAAAAAAAAAAAAAAAKf/AACn/wAAp/8AAKf/AACn/x8Ap/+TAKf/9gCn//8Ap///AKf//wCn//8Ap///AKf//wCn//8Ap///AKf//wCn/6EAp/8HAKf/AAAAAAAAAAAAAAAAAAAAAACAgIAugICA6oCAgP+AgID/gICA/4CAgP+AgID/gICA/4CAgP+AgID0gICAUYCAgACAgIAAAAAAAAAAAAAAAAAAAAAAAAAAAAAAp/8AAKf/AACn/wAAp/8AAKf/AACn/wAAp/8AAKf/AACn/wAAp/8AAKf/AACn/wAAp/8AAKf/AACn/wAAp/8AAKf/AACn/wAAp/8AAKf/AACn/wAAp/8AAKf/AACn/wAAp/8BAKf/HQCn/2sAp//RAKf//wCn//8Ap///AKf//wCn//8Ap///AKf//wCn//8Ap///AKf//wCn/94Ap/8tAKf/AAAAAAAAAAAAAAAAAAAAAACAgIAAgICAZICAgP6AgID/gICA/4CAgP+AgID/gICA/4CAgP+AgID/gICAtoCAgAqAgIAAAAAAAAAAAAAAAAAAAAAAAAAAAAAAp/8AAKf/AACn/wQAp/8XAKf/HgCn/x4Ap/8eAKf/HgCn/x4Ap/8eAKf/HgCn/x4Ap/8eAKf/HgCn/x4Ap/8eAKf/HgCn/x4Ap/8eAKf/HgCn/x4Ap/8fAKf/JQCn/zgAp/9eAKf/mACn/9cAp//9AKf//wCn//8Ap///AKf//wCn//8Ap///AKf//wCn//8Ap///AKf//wCn//UAp/9hAKf/AACn/wAAAAAAAAAAAAAAAAAAAAAAgICAAYCAgJaAgID/gICA/4CAgP+AgID/gICA/4CAgP+AgID/gICA/ICAgGKAgIAAAAAAAAAAAAAAAAAAAAAAAAAAAAAAp/8AAKf/AQCn/zsAp/+kAKf/1gCn/98Ap//gAKf/4ACn/+AAp//gAKf/4ACn/+AAp//gAKf/4ACn/+AAp//gAKf/4ACn/+AAp//gAKf/4ACn/+AAp//gAKf/4ACn/+YAp//yAKf//gCn//8Ap///AKf//wCn//8Ap///AKf//wCn//8Ap///AKf//wCn//8Ap///AKf//wCn//wAp/+IAKf/BwCn/wAAAAAAAAAAAAAAAAAAAAAAAAAAAICAgAeAgIC6gICA/4CAgP+AgID/gICA/4CAgP+AgID/gICA/4CAgOiAgIAqgICAAAAAAAAAAAAAAAAAAAAAAAAAAAAAAKf/AACn/0gAp//jAKf//wCn//8Ap///AKf//wCn//8Ap///AKf//wCn//8Ap///AKf//wCn//8Ap///AKf//wCn//8Ap///AKf//wCn//8Ap///AKf//wCn//8Ap///AKf//wCn//8Ap///AKf//wCn//8Ap///AKf//wCn//8Ap///AKf//wCn//8Ap///AKf//wCn//wAp/+YAKf/DgCn/wAAAAAAAAAAAAAAAAAAAAAAAAAAAAAAAACAgIASgICA0ICAgP+AgID/gICA/4CAgP+AgID/gICA/4CAgP+AgIDMgICAEAAAAAAAAAAAAAAAAAAAAAAAAAAAAAAAAACn/xEAp//DAKf//wCn//8Ap///AKf//wCn//8Ap///AKf//wCn//8Ap///AKf//wCn//8Ap///AKf//wCn//8Ap///AKf//wCn//8Ap///AKf//wCn//8Ap///AKf//wCn//8Ap///AKf//wCn//8Ap///AKf//wCn//8Ap///AKf//wCn//8Ap///AKf//wCn//kAp/+RAKf/EACn/wAAAAAAAAAAAAAAAAAAAAAAAAAAAAAAAAAAAAAAgICAGYCAgNqAgID/gICA/4CAgP+AgID/gICA/4CAgP+AgID/gICAuICAgAYAAAAAAAAAAAAAAAAAAAAAAAAAAAAAAAAAp/81AKf/8QCn//8Ap///AKf//wCn//8Ap///AKf//wCn//8Ap///AKf//wCn//8Ap///AKf//wCn//8Ap///AKf//wCn//8Ap///AKf//wCn//8Ap///AKf//wCn//8Ap///AKf//wCn//8Ap///AKf//wCn//8Ap///AKf//wCn//8Ap///AKf//wCn/+oAp/9zAKf/CgCn/wAAp/8AAAAAAAAAAAAAAAAAAAAAAAAAAAAAAAAAAAAAAICAgBuAgIDcgICA/4CAgP+AgID/gICA/4CAgP+AgID/gICA/4CAgLOAgIAFAAAAAAAAAAAAAAAAAAAAAAAAAAAAAAAAAKf/OgCn//QAp///AKf//wCn//8Ap///AKf//wCn//8Ap///AKf//wCn//8Ap///AKf//wCn//8Ap///AKf//wCn//8Ap///AKf//wCn//8Ap///AKf//wCn//8Ap///AKf//wCn//8Ap///AKf//wCn//8Ap///AKf//wCn//8Ap///AKf//QCn/8AAp/9EAKf/AQCn/wAAAAAAAAAAAAAAAAAAAAAAAAAAAAAAAAAAAAAAAAAAAAAAAACAgIAXgICA14CAgP+AgID/gICA/4CAgP+AgID/gICA/4CAgP+AgIC+gICACQAAAAAAAAAAAAAAAAAAAAAAAAAAAAAAAACn/xkAp//UAKf//wCn//8Ap///AKf//wCn//8Ap///AKf//wCn//8Ap///AKf//wCn//8Ap///AKf//wCn//8Ap///AKf//wCn//8Ap///AKf//wCn//8Ap///AKf//wCn//8Ap///AKf//wCn//8Ap///AKf//wCn//8Ap//+AKf/0wCn/3AAp/8VAKf/AACn/wAAAAAAAAAAAAAAAAAAAAAAAAAAAAAAAAAAAAAAAAAAAAAAAAAAAAAAgICADoCAgMiAgID/gICA/4CAgP+AgID/gICA/4CAgP+AgID/gICA14CAgBgAAAAAAAAAAAAAAAAAAAAAAAAAAAAAAAAAp/8BAKf/ZQCn//QAp///AKf//wCn//8Ap///AKf//wCn//8Ap///AKf//wCn//8Ap///AKf//wCn//8Ap///AKf//wCn//8Ap///AKf//wCn//8Ap///AKf//wCn//8Ap///AKf//wCn//8Ap///AKf//wCn/+4Ap/+8AKf/agCn/x0Ap/8AAKf/AACn/wAAAAAAAAAAAAAAAAAAAAAAAAAAAAAAAAAAAAAAAAAAAAAAAAAAAAAAAAAAAICAgASAgICtgICA/4CAgP+AgID/gICA/4CAgP+AgID/gICA/4CAgPOAgIA9gICAAAAAAAAAAAAAAAAAAAAAAAAAAAAAAKf/AACn/wYAp/9hAKf/zACn//EAp//3AKf/9wCn//cAp//3AKf/9wCn//cAp//3AKf/9wCn//cAp//3AKf/9wCn//cAp//3AKf/9wCn//cAp//3AKf/9wCn//cAp//1AKf/7wCn/+MAp//MAKf/pgCn/3AAp/82AKf/DACn/wAAp/8AAKf/AAAAAAAAAAAAAAAAAAAAAAAAAAAAAAAAAAAAAAAAAAAAAAAAAAAAAAAAAAAAAAAAAAAAAACAgIAAgICAg4CAgP+AgID/gICA/4CAgP+AgID/gICA/4CAgP+AgID/gICAg4CAgAAAAAAAAAAAAAAAAAAAAAAAAAAAAAAAAAAAp/8AAKf/AACn/xUAp/83AKf/QgCn/0IAp/9CAKf/QgCn/0IAp/9CAKf/QgCn/0IAp/9CAKf/QgCn/0IAp/9CAKf/QgCn/0IAp/9CAKf/QgCn/0IAp/9CAKf/PQCn/zIAp/8iAKf/EACn/wIAp/8AAKf/AACn/wAAp/8AAAAAAAAAAAAAAAAAAAAAAAAAAAAAAAAAAAAAAAAAAAAAAAAAAAAAAAAAAAAAAAAAAAAAAAAAAAAAAAAAgICAAICAgE2AgID5gICA/4CAgP+AgID/gICA/4CAgP+AgID/gICA/4CAgNaAgIAegICAAAAAAAAAAAAAAAAAAAAAAAAAAAAAAAAAAACn/wAAp/8AAKf/AACn/wAAp/8AAKf/AACn/wAAp/8AAKf/AACn/wAAp/8AAKf/AACn/wAAp/8AAKf/AACn/wAAp/8AAKf/AACn/wAAp/8AAKf/AACn/wAAp/8AAKf/AACn/wAAp/8AAKf/AAAAAAAAAAAAAAAAAAAAAAAAAAAAAAAAAAAAAAAAAAAAAAAAAAAAAAAAAAAAAAAAAAAAAAAAAAAAAAAAAAAAAAAAAAAAAAAAAAAAAACAgIAbgICA2YCAgP+AgID/gICA/4CAgP+AgID/gICA/4CAgP+AgID9gICAg4CAgAKAgIAAAAAAAAAAAAAAAAAAAAAAAAAAAAAAAAAAAAAAAAAAAAAAAAAAAAAAAAAAAAAAAAAAAAAAAAAAAAAAAAAAAAAAAAAAAAAAAAAAAAAAAAAAAAAAAAAAAAAAAAAAAAAAAAAAAAAAAAAAAAAAAAAAAAAAAAAAAAAAAAAAAAAAAAAAAAAAAAAAAAAAAAAAAAAAAAAAAAAAAAAAAAAAAAAAAAAAAAAAAAAAAAAAAAAAAAAAAAAAAAAAAAAAAAAAAAAAAAAAAAAAAAAAAAAAAAAAgICAAoCAgJOAgID/gICA/4CAgP+AgID/gICA/4CAgP+AgID/gICA/4CAgOuAgIBKgICAAICAgAAAAAAAAAAAAAAAAAAAAAAAAAAAAAAAAAAAAAAAAAAAAAAAAAAAAAAAAAAAAAAAAAAAAAAAAAAAAAAAAAAAAAAAgICAAICAgACAgIAAgICAAICAgACAgIAAgICAAAAAAAAAAAAAAAAAAAAAAAAAAAAAAAAAAAAAAAAAAAAAAAAAAAAAAAAAAAAAAAAAAAAAAAAAAAAAAAAAAAAAAAAAAAAAAAAAAAAAAAAAAAAAAAAAAAAAAAAAAAAAAAAAAAAAAAAAAAAAAAAAAICAgACAgIA7gICA74CAgP+AgID/gICA/4CAgP+AgID/gICA/4CAgP+AgID/gICA2ICAgDmAgIAAgICAAAAAAAAAAAAAAAAAAAAAAAAAAAAAAAAAAAAAAAAAAAAAAAAAAAAAAAAAAAAAAAAAAAAAAACAgIAAgICAAICAgASAgIA1gICAbYCAgHqAgIBZgICAGoCAgACAgIAAAAAAAAAAAAAAAAAAAAAAAAAAAAAAAAAAAAAAAAAAAAAAAAAAAAAAAAAAAAAAAAAAAAAAAAAAAAAAAAAAAAAAAAAAAAAAAAAAAAAAAAAAAAAAAAAAAAAAAAAAAAAAAAAAAAAAAAAAAAAAAAAAgICABoCAgKGAgID/gICA/4CAgP+AgID/gICA/4CAgP+AgID/gICA/4CAgP+AgIDXgICASoCAgAGAgIAAgICAAAAAAAAAAAAAAAAAAAAAAAAAAAAAAAAAAAAAAAAAAAAAAAAAAICAgACAgIAAgICAAICAgBSAgICIgICA64CAgP+AgID/gICA/ICAgMyAgIBDgICAAAAAAAAAAAAAAAAAAAAAAAAAAAAAAAAAAAAAAAAAAAAAAAAAAAAAAAAAAAAAAAAAAAAAAAAAAAAAAAAAAAAAAAAAAAAAAAAAAAAAAAAAAAAAAAAAAAAAAAAAAAAAAAAAAAAAAAAAAAAAAAAAAICAgACAgIAzgICA5ICAgP+AgID/gICA/4CAgP+AgID/gICA/4CAgP+AgID/gICA/4CAgOuAgIB/gICAG4CAgACAgIAAgICAAICAgACAgIAAAAAAAAAAAACAgIAAgICAAICAgACAgIAAgICABYCAgECAgIC5gICA/oCAgP+AgID/gICA/4CAgP+AgID/gICA1oCAgCQAAAAAAAAAAAAAAAAAAAAAAAAAAAAAAAAAAAAAAAAAAAAAAAAAAAAAAAAAAAAAAAAAAAAAAAAAAAAAAAAAAAAAAAAAAAAAAAAAAAAAAAAAAAAAAAAAAAAAAAAAAAAAAAAAAAAAAAAAAAAAAACAgIAAgICAAYCAgHSAgID6gICA/4CAgP+AgID/gICA/4CAgP+AgID/gICA/4CAgP+AgID/gICA/oCAgNCAgIB2gICALYCAgAqAgIAAgICAAICAgACAgIAAgICAAICAgAKAgIAWgICASoCAgKCAgIDtgICA/4CAgP+AgID/gICA/4CAgP+AgID/gICA/4CAgP+AgIBzAAAAAAAAAAAAAAAAAAAAAAAAAAAAAAAAAAAAAAAAAAAAAAAAAAAAAAAAAAAAAAAAAAAAAAAAAAAAAAAAAAAAAAAAAAAAAAAAAAAAAAAAAAAAAAAAAAAAAAAAAAAAAAAAAAAAAAAAAAAAAAAAAAAAAICAgACAgIANgICApYCAgP+AgID/gICA/4CAgP+AgID/gICA/4CAgP+AgID/gICA/4CAgP+AgID/gICA/4CAgOiAgIC+gICAlICAgHeAgIBrgICAboCAgIKAgICmgICA0oCAgPaAgID/gICA/4CAgP+AgID/gICA/4CAgP+AgID/gICA/4CAgP+AgID/gICAmQAAAAAAAAAAAAAAAAAAAAAAAAAAAAAAAAAAAAAAAAAAAAAAAAAAAAAAAAAAAAAAAAAAAAAAAAAAAAAAAAAAAAAAAAAAAAAAAAAAAAAAAAAAAAAAAAAAAAAAAAAAAAAAAAAAAAAAAAAAAAAAAAAAAAAAAAAAgICAAICAgB6AgIC9gICA/4CAgP+AgID/gICA/4CAgP+AgID/gICA/4CAgP+AgID/gICA/4CAgP+AgID/gICA/4CAgP+AgID/gICA/4CAgP+AgID/gICA/4CAgP+AgID/gICA/4CAgP+AgID/gICA/4CAgP+AgID/gICA/4CAgP+AgID/gICA/4CAgIMAAAAAAAAAAAAAAAAAAAAAAAAAAAAAAAAAAAAAAAAAAAAAAAAAAAAAAAAAAAAAAAAAAAAAAAAAAAAAAAAAAAAAAAAAAAAAAAAAAAAAAAAAAAAAAAAAAAAAAAAAAAAAAAAAAAAAAAAAAAAAAAAAAAAAAAAAAICAgACAgIAAgICAJ4CAgMCAgID/gICA/4CAgP+AgID/gICA/4CAgP+AgID/gICA/4CAgP+AgID/gICA/4CAgP+AgID/gICA/4CAgP+AgID/gICA/4CAgP+AgID/gICA/4CAgP+AgID/gICA/4CAgP+AgID/gICA/4CAgP+AgID/gICA/4CAgOmAgIA3AAAAAAAAAAAAAAAAAAAAAAAAAAAAAAAAAAAAAAAAAAAAAAAAAAAAAAAAAAAAAAAAAAAAAAAAAAAAAAAAAAAAAAAAAAAAAAAAAAAAAAAAAAAAAAAAAAAAAAAAAAAAAAAAAAAAAAAAAAAAAAAAAAAAAAAAAAAAAAAAgICAAICAgACAgIAigICAr4CAgP6AgID/gICA/4CAgP+AgID/gICA/4CAgP+AgID/gICA/4CAgP+AgID/gICA/4CAgP+AgID/gICA/4CAgP+AgID/gICA/4CAgP+AgID/gICA/4CAgP+AgID/gICA/4CAgP+AgID/gICA/4CAgOqAgIBkgICAAgAAAAAAAAAAAAAAAAAAAAAAAAAAAAAAAAAAAAAAAAAAAAAAAAAAAAAAAAAAAAAAAAAAAAAAAAAAAAAAAAAAAAAAAAAAAAAAAAAAAAAAAAAAAAAAAAAAAAAAAAAAAAAAAAAAAAAAAAAAAAAAAAAAAAAAAAAAAAAAAAAAAACAgIAAgICAAICAgBOAgICHgICA74CAgP+AgID/gICA/4CAgP+AgID/gICA/4CAgP+AgID/gICA/4CAgP+AgID/gICA/4CAgP+AgID/gICA/4CAgP+AgID/gICA/4CAgP+AgID/gICA/4CAgP+AgID/gICA/4CAgM2AgIBKgICAAoCAgAAAAAAAAAAAAAAAAAAAAAAAAAAAAAAAAAAAAAAAAAAAAAAAAAAAAAAAAAAAAAAAAAAAAAAAAAAAAAAAAAAAAAAAAAAAAAAAAAAAAAAAAAAAAAAAAAAAAAAAAAAAAAAAAAAAAAAAAAAAAAAAAAAAAAAAAAAAAAAAAAAAAAAAAAAAAICAgACAgIAAgICABICAgEqAgIDAgICA+4CAgP+AgID/gICA/4CAgP+AgID/gICA/4CAgP+AgID/gICA/4CAgP+AgID/gICA/4CAgP+AgID/gICA/4CAgP+AgID/gICA/4CAgP+AgID/gICA6oCAgI6AgIAggICAAICAgAAAAAAAAAAAAAAAAAAAAAAAAAAAAAAAAAAAAAAAAAAAAAAAAAAAAAAAAAAAAAAAAAAAAAAAAAAAAAAAAAAAAAAAAAAAAAAAAAAAAAAAAAAAAAAAAAAAAAAAAAAAAAAAAAAAAAAAAAAAAAAAAAAAAAAAAAAAAAAAAAAAAAAAAAAAAAAAAAAAAAAAAAAAAICAgACAgIAAgICAE4CAgGWAgIDEgICA94CAgP+AgID/gICA/4CAgP+AgID/gICA/4CAgP+AgID/gICA/4CAgP+AgID/gICA/4CAgP+AgID/gICA/4CAgP+AgIDngICAnoCAgDqAgIADgICAAICAgAAAAAAAAAAAAAAAAAAAAAAAAAAAAAAAAAAAAAAAAAAAAAAAAAAAAAAAAAAAAAAAAAAAAAAAAAAAAAAAAAAAAAAAAAAAAAAAAAAAAAAAAAAAAAAAAAAAAAAAAAAAAAAAAAAAAAAAAAAAAAAAAAAAAAAAAAAAAAAAAAAAAAAAAAAAAAAAAAAAAAAAAAAAAAAAAAAAAAAAgICAAICAgACAgIAAgICAEoCAgE6AgICbgICA1YCAgPSAgID/gICA/4CAgP+AgID/gICA/4CAgP+AgID/gICA/4CAgP+AgID8gICA6YCAgL+AgIB5gICAL4CAgASAgIAAgICAAAAAAAAAAAAAAAAAAAAAAAAAAAAAAAAAAAAAAAAAAAAAAAAAAAAAAAAAAAAAAAAAAAAAAAAAAAAAAAAAAAAAAAAAAAAAAAAAAAAAAAAAAAAAAAAAAAAAAAAAAAAAAAAAAAAAAAAAAAAAAAAAAAAAAAAAAAAAAAAAAAAAAAAAAAAAAAAAAAAAAAAAAAAAAAAAAAAAAAAAAAAAAAAAAAAAAAAAAAAAgICAAICAgACAgIAAgICAAYCAgBiAgIA/gICAa4CAgJCAgICqgICAuoCAgMCAgIC+gICAtICAgKCAgICAgICAWICAgC2AgIAMgICAAICAgACAgIAAgICAAAAAAAAAAAAAAAAAAAAAAAAAAAAAAAAAAAAAAAAAAAAAAAAAAAAAAAAAAAAAAAAAAAAAAAAAAAAAAAAAAAAAAAAAAAAAAAAAAAAAAAAAAAAAAAAAAAAAAAAAAAAAAAAAAAAAAAAAAAAAAAAAAAAAAAAAAAAAAAAAAAAAAAAAAAAAAAAAAAAAAAAAAAAAAAAAAAAAAAAAAAAAAAAAAAAAAAAAAAAAAAAAAAAAAAAAAAAAgICAAICAgACAgIAAgICAAICAgACAgIAAgICAA4CAgAeAgIAKgICACYCAgAWAgIAAgICAAICAgACAgIAAgICAAICAgAAAAAAAAAAAAAAAAAAAAAAAAAAAAAAAAAAAAAAAAAAAAAAAAAAAAAAAAAAAAAAAAAAAAAAAAAAAAAAAAAAAAAAAAAAAAAAAAAAAAAAAAAAAAAAAAAAAAAAAAAAAAAAAAAAAAAAAAAAAAAAAAAAAAAAAAAAAAAAAAAAAAAAAAAAAAAAAAAAAAAAAAAAAAAAAAAAAAAAAAAAAAAAAAAAAAAAAAAAAAAAAAAAAAAAAAAAAAAAAAAAAAAAAAAAAAAAAAAAAAAAAAAAAAAAAAACAgIAAgICAAICAgACAgIAAgICAAICAgACAgIAAgICAAICAgAAAAAAAAAAAAAAAAAAAAAAAAAAAAAAAAAAAAAAAAAAAAAAAAAAAAAAAAAAAAAAAAAAAAAAAAAAAAAAAAAAAAAAAAAAAAAAAAAAAAAAAAAAAAAAAAAAAAAAAAAAAAAAAAAAAAAAAAAAAAAAAAAAAAAAAAAAAAAAAAAAAAAAAAAAAAAAAAAAAAAAAAAAAAAAAAAAAAAAAAAAAAAAAAAAAAAAAAAAAAAAAAAAAAAAAAAAAAAAAAAAAAAAAAAAAAAAAAAAAAAAAAAAAAAAAAAAAAAAAAAAAAAAAAAAAAAAAAAAAAAAAAAAAAAAAAAAAAAAAAAAAAAAAAAAAAAAAAAAAAAAAAAAAAAAAAAAAAAAAAAAAAAAAAAAAAAAAAAAAAAAAAAAAAAAAAAAAAAAAAAAAAAAAAAAAAAAAAAAAAAAAAAAAAAAAAAAAAAAAAAAAAAAAAAAAAAAAAAAAAAAAAAAAAAAAAAAAAAAAAAAAAAAAAAAAAAAAAAAAAAAAAAAAAAAAAAAAAAAAAAAAAAAAAAAAAAAA///////////////////////////8H////////4AA///////+AAAf//////gAAA//////4AAAA//////AAAAB/////4AAAAB/////AAAAAD////8AAAAAP////wAAAAAf////AAPgAA////8AH/wAB////4B//wAH////wP//gAP////////AA////////+AD////////4AH//+AAAA/wAf/+AAAAB/AB//gAAAAD8AH/4AAAAAP4Af/AAAAAA/gB/wAAAAAD+AH+AAAAAAP4AfwAAAAAA/AB/AAAAAAH8AH4AAAAAB/wAfAAD////+AD8AB/////wAPgAP////+AA+AB/////wAHwAP////+AAfAB/////AAD8AH+AAAAAAPgA/gAAAAAB+AD+AAAAAAP4APwAAAAAB/gA/AAAAAAP+AD8AAAAAB/4APwAAAAAf/gA/AAAAAH/+AD+AAAAB//8AH+AAAA///wAf////////AA////////8AD////////4AH//wP////gAH/+Af////AAP/gA////8AAHwAD////4AAAAAP////wAAAAA/////gAAAAD/////AAAAAP////+AAAAB/////8AAAAf/////8AAAD//////8AAA///////8AAf////////gf//////////////////////////8=;" vertex="1" parent="8fYqs_rgSFELD76FwpnV-18">
          <mxGeometry x="8" y="8" width="64" height="64" as="geometry" />
        </mxCell>
        <mxCell id="8fYqs_rgSFELD76FwpnV-19" value="TAPLE Node" style="text;html=1;strokeColor=none;fillColor=none;align=center;verticalAlign=middle;whiteSpace=wrap;rounded=0;fontStyle=1" vertex="1" parent="8fYqs_rgSFELD76FwpnV-68">
          <mxGeometry x="45" y="339" width="91" height="30" as="geometry" />
        </mxCell>
        <mxCell id="8fYqs_rgSFELD76FwpnV-66" value="" style="group" vertex="1" connectable="0" parent="8fYqs_rgSFELD76FwpnV-68">
          <mxGeometry width="191" height="230" as="geometry" />
        </mxCell>
        <mxCell id="8fYqs_rgSFELD76FwpnV-40" value="" style="group" vertex="1" connectable="0" parent="8fYqs_rgSFELD76FwpnV-66">
          <mxGeometry width="171" height="210" as="geometry" />
        </mxCell>
        <mxCell id="8fYqs_rgSFELD76FwpnV-24" value="" style="group" vertex="1" connectable="0" parent="8fYqs_rgSFELD76FwpnV-40">
          <mxGeometry x="1" width="170" height="210" as="geometry" />
        </mxCell>
        <mxCell id="8fYqs_rgSFELD76FwpnV-20" value="" style="rounded=1;whiteSpace=wrap;html=1;fillColor=#fad7ac;strokeColor=#b46504;" vertex="1" parent="8fYqs_rgSFELD76FwpnV-24">
          <mxGeometry width="170" height="210" as="geometry" />
        </mxCell>
        <mxCell id="8fYqs_rgSFELD76FwpnV-23" value="" style="rounded=0;whiteSpace=wrap;html=1;" vertex="1" parent="8fYqs_rgSFELD76FwpnV-24">
          <mxGeometry y="40" width="170" height="170" as="geometry" />
        </mxCell>
        <mxCell id="8fYqs_rgSFELD76FwpnV-32" value="" style="endArrow=none;html=1;rounded=0;" edge="1" parent="8fYqs_rgSFELD76FwpnV-24">
          <mxGeometry width="50" height="50" relative="1" as="geometry">
            <mxPoint y="80" as="sourcePoint" />
            <mxPoint x="170" y="80" as="targetPoint" />
          </mxGeometry>
        </mxCell>
        <mxCell id="8fYqs_rgSFELD76FwpnV-35" value="Schema" style="text;html=1;strokeColor=none;fillColor=none;align=left;verticalAlign=middle;whiteSpace=wrap;rounded=0;" vertex="1" parent="8fYqs_rgSFELD76FwpnV-24">
          <mxGeometry x="10" y="50" width="110" height="30" as="geometry" />
        </mxCell>
        <mxCell id="8fYqs_rgSFELD76FwpnV-36" value="Contract Base64" style="text;html=1;strokeColor=#b85450;fillColor=#f8cecc;align=left;verticalAlign=middle;whiteSpace=wrap;rounded=0;" vertex="1" parent="8fYqs_rgSFELD76FwpnV-24">
          <mxGeometry y="79" width="170" height="43" as="geometry" />
        </mxCell>
        <mxCell id="8fYqs_rgSFELD76FwpnV-37" value="Members" style="text;html=1;strokeColor=none;fillColor=none;align=left;verticalAlign=middle;whiteSpace=wrap;rounded=0;" vertex="1" parent="8fYqs_rgSFELD76FwpnV-24">
          <mxGeometry x="10" y="130" width="110" height="30" as="geometry" />
        </mxCell>
        <mxCell id="8fYqs_rgSFELD76FwpnV-38" value="Roles" style="text;html=1;strokeColor=none;fillColor=none;align=left;verticalAlign=middle;whiteSpace=wrap;rounded=0;" vertex="1" parent="8fYqs_rgSFELD76FwpnV-24">
          <mxGeometry x="10" y="170" width="110" height="30" as="geometry" />
        </mxCell>
        <mxCell id="8fYqs_rgSFELD76FwpnV-39" value="Governance" style="text;html=1;strokeColor=none;fillColor=none;align=center;verticalAlign=middle;whiteSpace=wrap;rounded=0;fontStyle=1;fontSize=13;" vertex="1" parent="8fYqs_rgSFELD76FwpnV-24">
          <mxGeometry x="30" y="7" width="110" height="30" as="geometry" />
        </mxCell>
        <mxCell id="8fYqs_rgSFELD76FwpnV-33" value="" style="endArrow=none;html=1;rounded=0;" edge="1" parent="8fYqs_rgSFELD76FwpnV-40">
          <mxGeometry width="50" height="50" relative="1" as="geometry">
            <mxPoint y="123" as="sourcePoint" />
            <mxPoint x="170" y="123" as="targetPoint" />
          </mxGeometry>
        </mxCell>
        <mxCell id="8fYqs_rgSFELD76FwpnV-34" value="" style="endArrow=none;html=1;rounded=0;" edge="1" parent="8fYqs_rgSFELD76FwpnV-40">
          <mxGeometry width="50" height="50" relative="1" as="geometry">
            <mxPoint y="167" as="sourcePoint" />
            <mxPoint x="170" y="167" as="targetPoint" />
          </mxGeometry>
        </mxCell>
        <mxCell id="8fYqs_rgSFELD76FwpnV-42" value="" style="group" vertex="1" connectable="0" parent="8fYqs_rgSFELD76FwpnV-66">
          <mxGeometry x="10" y="10" width="171" height="210" as="geometry" />
        </mxCell>
        <mxCell id="8fYqs_rgSFELD76FwpnV-43" value="" style="group" vertex="1" connectable="0" parent="8fYqs_rgSFELD76FwpnV-42">
          <mxGeometry x="1" width="170" height="210" as="geometry" />
        </mxCell>
        <mxCell id="8fYqs_rgSFELD76FwpnV-44" value="" style="rounded=1;whiteSpace=wrap;html=1;fillColor=#fad7ac;strokeColor=#b46504;" vertex="1" parent="8fYqs_rgSFELD76FwpnV-43">
          <mxGeometry width="170" height="210" as="geometry" />
        </mxCell>
        <mxCell id="8fYqs_rgSFELD76FwpnV-45" value="" style="rounded=0;whiteSpace=wrap;html=1;" vertex="1" parent="8fYqs_rgSFELD76FwpnV-43">
          <mxGeometry y="40" width="170" height="170" as="geometry" />
        </mxCell>
        <mxCell id="8fYqs_rgSFELD76FwpnV-46" value="" style="endArrow=none;html=1;rounded=0;" edge="1" parent="8fYqs_rgSFELD76FwpnV-43">
          <mxGeometry width="50" height="50" relative="1" as="geometry">
            <mxPoint y="80" as="sourcePoint" />
            <mxPoint x="170" y="80" as="targetPoint" />
          </mxGeometry>
        </mxCell>
        <mxCell id="8fYqs_rgSFELD76FwpnV-47" value="Schema" style="text;html=1;strokeColor=none;fillColor=none;align=left;verticalAlign=middle;whiteSpace=wrap;rounded=0;" vertex="1" parent="8fYqs_rgSFELD76FwpnV-43">
          <mxGeometry x="10" y="50" width="110" height="30" as="geometry" />
        </mxCell>
        <mxCell id="8fYqs_rgSFELD76FwpnV-48" value="Contract Base64" style="text;html=1;strokeColor=#b85450;fillColor=#f8cecc;align=left;verticalAlign=middle;whiteSpace=wrap;rounded=0;" vertex="1" parent="8fYqs_rgSFELD76FwpnV-43">
          <mxGeometry y="79" width="170" height="43" as="geometry" />
        </mxCell>
        <mxCell id="8fYqs_rgSFELD76FwpnV-49" value="Members" style="text;html=1;strokeColor=none;fillColor=none;align=left;verticalAlign=middle;whiteSpace=wrap;rounded=0;" vertex="1" parent="8fYqs_rgSFELD76FwpnV-43">
          <mxGeometry x="10" y="130" width="110" height="30" as="geometry" />
        </mxCell>
        <mxCell id="8fYqs_rgSFELD76FwpnV-50" value="Roles" style="text;html=1;strokeColor=none;fillColor=none;align=left;verticalAlign=middle;whiteSpace=wrap;rounded=0;" vertex="1" parent="8fYqs_rgSFELD76FwpnV-43">
          <mxGeometry x="10" y="170" width="110" height="30" as="geometry" />
        </mxCell>
        <mxCell id="8fYqs_rgSFELD76FwpnV-51" value="Governance" style="text;html=1;strokeColor=none;fillColor=none;align=center;verticalAlign=middle;whiteSpace=wrap;rounded=0;fontStyle=1;fontSize=13;" vertex="1" parent="8fYqs_rgSFELD76FwpnV-43">
          <mxGeometry x="30" y="7" width="110" height="30" as="geometry" />
        </mxCell>
        <mxCell id="8fYqs_rgSFELD76FwpnV-52" value="" style="endArrow=none;html=1;rounded=0;" edge="1" parent="8fYqs_rgSFELD76FwpnV-42">
          <mxGeometry width="50" height="50" relative="1" as="geometry">
            <mxPoint y="123" as="sourcePoint" />
            <mxPoint x="170" y="123" as="targetPoint" />
          </mxGeometry>
        </mxCell>
        <mxCell id="8fYqs_rgSFELD76FwpnV-53" value="" style="endArrow=none;html=1;rounded=0;" edge="1" parent="8fYqs_rgSFELD76FwpnV-42">
          <mxGeometry width="50" height="50" relative="1" as="geometry">
            <mxPoint y="167" as="sourcePoint" />
            <mxPoint x="170" y="167" as="targetPoint" />
          </mxGeometry>
        </mxCell>
        <mxCell id="8fYqs_rgSFELD76FwpnV-54" value="" style="group" vertex="1" connectable="0" parent="8fYqs_rgSFELD76FwpnV-66">
          <mxGeometry x="20" y="20" width="171" height="210" as="geometry" />
        </mxCell>
        <mxCell id="8fYqs_rgSFELD76FwpnV-55" value="" style="group" vertex="1" connectable="0" parent="8fYqs_rgSFELD76FwpnV-54">
          <mxGeometry x="1" width="170" height="210" as="geometry" />
        </mxCell>
        <mxCell id="8fYqs_rgSFELD76FwpnV-56" value="" style="rounded=1;whiteSpace=wrap;html=1;fillColor=#fad7ac;strokeColor=#b46504;" vertex="1" parent="8fYqs_rgSFELD76FwpnV-55">
          <mxGeometry width="170" height="210" as="geometry" />
        </mxCell>
        <mxCell id="8fYqs_rgSFELD76FwpnV-57" value="" style="rounded=0;whiteSpace=wrap;html=1;" vertex="1" parent="8fYqs_rgSFELD76FwpnV-55">
          <mxGeometry y="40" width="170" height="170" as="geometry" />
        </mxCell>
        <mxCell id="8fYqs_rgSFELD76FwpnV-58" value="" style="endArrow=none;html=1;rounded=0;" edge="1" parent="8fYqs_rgSFELD76FwpnV-55">
          <mxGeometry width="50" height="50" relative="1" as="geometry">
            <mxPoint y="80" as="sourcePoint" />
            <mxPoint x="170" y="80" as="targetPoint" />
          </mxGeometry>
        </mxCell>
        <mxCell id="8fYqs_rgSFELD76FwpnV-59" value="Schema" style="text;html=1;strokeColor=none;fillColor=none;align=left;verticalAlign=middle;whiteSpace=wrap;rounded=0;" vertex="1" parent="8fYqs_rgSFELD76FwpnV-55">
          <mxGeometry x="10" y="50" width="110" height="30" as="geometry" />
        </mxCell>
        <mxCell id="8fYqs_rgSFELD76FwpnV-60" value="Contract Base64" style="text;html=1;strokeColor=#b85450;fillColor=#f8cecc;align=left;verticalAlign=middle;whiteSpace=wrap;rounded=0;" vertex="1" parent="8fYqs_rgSFELD76FwpnV-55">
          <mxGeometry y="79" width="170" height="43" as="geometry" />
        </mxCell>
        <mxCell id="8fYqs_rgSFELD76FwpnV-61" value="Members" style="text;html=1;strokeColor=none;fillColor=none;align=left;verticalAlign=middle;whiteSpace=wrap;rounded=0;" vertex="1" parent="8fYqs_rgSFELD76FwpnV-55">
          <mxGeometry x="10" y="130" width="110" height="30" as="geometry" />
        </mxCell>
        <mxCell id="8fYqs_rgSFELD76FwpnV-62" value="Roles" style="text;html=1;strokeColor=none;fillColor=none;align=left;verticalAlign=middle;whiteSpace=wrap;rounded=0;" vertex="1" parent="8fYqs_rgSFELD76FwpnV-55">
          <mxGeometry x="10" y="170" width="110" height="30" as="geometry" />
        </mxCell>
        <mxCell id="8fYqs_rgSFELD76FwpnV-63" value="Governance" style="text;html=1;strokeColor=none;fillColor=none;align=center;verticalAlign=middle;whiteSpace=wrap;rounded=0;fontStyle=1;fontSize=13;" vertex="1" parent="8fYqs_rgSFELD76FwpnV-55">
          <mxGeometry x="30" y="7" width="110" height="30" as="geometry" />
        </mxCell>
        <mxCell id="8fYqs_rgSFELD76FwpnV-64" value="" style="endArrow=none;html=1;rounded=0;" edge="1" parent="8fYqs_rgSFELD76FwpnV-54">
          <mxGeometry width="50" height="50" relative="1" as="geometry">
            <mxPoint y="123" as="sourcePoint" />
            <mxPoint x="170" y="123" as="targetPoint" />
          </mxGeometry>
        </mxCell>
        <mxCell id="8fYqs_rgSFELD76FwpnV-65" value="" style="endArrow=none;html=1;rounded=0;" edge="1" parent="8fYqs_rgSFELD76FwpnV-54">
          <mxGeometry width="50" height="50" relative="1" as="geometry">
            <mxPoint y="167" as="sourcePoint" />
            <mxPoint x="170" y="167" as="targetPoint" />
          </mxGeometry>
        </mxCell>
        <mxCell id="8fYqs_rgSFELD76FwpnV-69" value="" style="endArrow=classic;html=1;rounded=0;strokeWidth=4;fillColor=#ffe6cc;strokeColor=#d79b00;" edge="1" parent="1">
          <mxGeometry width="50" height="50" relative="1" as="geometry">
            <mxPoint x="231" y="304" as="sourcePoint" />
            <mxPoint x="470" y="304" as="targetPoint" />
          </mxGeometry>
        </mxCell>
        <mxCell id="8fYqs_rgSFELD76FwpnV-70" value="Base64 Encoded" style="text;html=1;align=center;verticalAlign=middle;whiteSpace=wrap;rounded=0;fontStyle=1" vertex="1" parent="1">
          <mxGeometry x="290" y="270" width="100" height="30" as="geometry" />
        </mxCell>
        <mxCell id="8fYqs_rgSFELD76FwpnV-71" value="&lt;pre style=&quot;letter-spacing:3px&quot;&gt;&lt;b style=&quot;&quot;&gt;&lt;font style=&quot;font-size: 16px;&quot; color=&quot;#808080&quot;&gt;WASM&lt;/font&gt;&lt;/b&gt;&lt;/pre&gt;" style="ellipse;whiteSpace=wrap;html=1;aspect=fixed;fontFamily=Courier New;spacing=2;noLabel=0;" vertex="1" parent="1">
          <mxGeometry x="830" y="260" width="80" height="80" as="geometry" />
        </mxCell>
        <mxCell id="8fYqs_rgSFELD76FwpnV-72" value="" style="endArrow=classic;html=1;rounded=0;strokeWidth=4;fillColor=#ffe6cc;strokeColor=#d79b00;" edge="1" parent="1">
          <mxGeometry width="50" height="50" relative="1" as="geometry">
            <mxPoint x="662" y="306" as="sourcePoint" />
            <mxPoint x="821" y="306" as="targetPoint" />
          </mxGeometry>
        </mxCell>
        <mxCell id="8fYqs_rgSFELD76FwpnV-73" value="Compile" style="text;html=1;align=center;verticalAlign=middle;whiteSpace=wrap;rounded=0;fontStyle=1" vertex="1" parent="1">
          <mxGeometry x="690" y="270" width="100" height="30" as="geometry" />
        </mxCell>
      </root>
    </mxGraphModel>
  </diagram>
</mxfile>
